<?xml version="1.0" encoding="UTF-8"?>
<svg width="768" height="768" xmlns="http://www.w3.org/2000/svg" xmlns:svg="http://www.w3.org/2000/svg">
 <title>Radarr</title>
 <defs>
  <clipPath id="a">
   <circle id="svg_1" stroke-width="3.5906" fill="#989898" r="375" cy="384" cx="384"/>
  </clipPath>
 </defs>
 <g>
  <title>Layer 1</title>
  <g stroke="null" id="radarr-group-logo">
   <circle stroke="null" stroke-width="1.8453" r="389.810206" cy="387.49997" cx="380.999963" id="radarr-black-circle"/>
   <path stroke="#989898" stroke-width="2.0228" stroke-miterlimit="1" stroke-linecap="square" fill="none" clip-path="url(#a)" d="m686.07336,4.288132l19.873317,11.458057l19.670485,-11.458057l0,-22.916113l-19.670485,-11.458057l-19.873317,11.458057l0,22.916113zm-39.340971,-22.916113l-19.670485,-11.458057l-19.655848,11.458057l0,22.916113l19.655848,11.458057l19.670485,-11.458057l0,-22.916113l19.670485,-11.458057l19.670485,11.458057m-39.340971,22.916113l19.670485,11.458057l19.670485,-11.458057m-39.340971,45.628724l0,22.916113l19.670485,11.458057l19.670485,-11.458057l0,-22.916113l-19.670485,-11.254554l-19.670485,11.254554l-19.670485,-11.254554l-19.655848,11.254554m78.668349,22.916113l19.873317,11.458057l19.670485,-11.458057l0,-22.916113l-19.670485,-11.254554l-19.873317,11.254554m19.873317,-34.170667l0,22.916113m-39.543802,-22.916113l0,22.916113m59.214287,-57.290284l19.670485,-11.458057l19.670485,11.458057l19.670485,-11.458057l19.670485,11.458057l19.655848,-11.458057l19.670485,11.458057l0,22.916113l19.670485,11.458057l0,22.916113l-19.670485,11.254554l0,22.916113l19.670485,11.458057l0,22.916113l-19.670485,11.458057l0,22.916113l19.670485,11.458057l0,22.916113l-19.670485,11.239868l0,22.916113l19.670485,11.458057l0,22.916113l-19.670485,11.458057l0,22.916113l19.670485,11.458057l0,22.916113l-19.670485,11.239868l0,22.916113l19.670485,11.458057l0,22.916113l-19.670485,11.472742l0,22.916113l19.670485,11.458057l0,22.916113l-19.670485,11.239868l0,22.916113l19.670485,11.458057l0,22.916113l-19.670485,11.458057l0,22.916113l19.670485,11.458057l0,22.916113l-19.670485,11.239868l0,22.916113l19.670485,11.458057l0,22.916113l-19.670485,11.458057l0,22.916113l19.670485,11.458057l0,22.916113l-19.670485,11.254554l0,22.916113l19.670485,11.458057l0,22.916113l-19.670485,11.458057l-19.670485,-11.458057l-19.655848,11.458057l-19.670485,-11.458057l-19.670485,11.458057l-19.670485,-11.458057l-19.670485,11.458057l-19.670485,-11.458057l-19.873317,11.458057l-19.670485,-11.458057l-19.670485,11.458057l-19.670485,-11.458057l-19.655848,11.458057l-19.670485,-11.458057l-19.670485,11.458057l-19.670485,-11.458057l-19.670485,11.458057l-19.670485,-11.458057l-19.873317,11.458057l-19.670485,-11.458057l-19.670485,11.458057l-19.670485,-11.458057l-19.655848,11.458057l-19.670485,-11.458057l-19.670485,11.458057l-19.670485,-11.458057l-19.670485,11.458057l-19.670485,-11.458057l-19.655848,11.458057l-19.670485,-11.458057l-19.670485,11.458057l-19.670485,-11.458057l-19.873317,11.458057l-19.670485,-11.458057l-19.670485,11.458057l-19.670485,-11.458057l-19.670485,11.458057l-19.670485,-11.458057l-19.670485,11.458057l-19.655848,-11.458057l-19.670485,11.458057l-19.670485,-11.458057l-19.873317,11.458057l-19.670485,-11.458057l-19.670485,11.458057l-19.670485,-11.458057l-19.670485,11.458057l-19.670485,-11.458057l0,-22.916113l-19.670485,-11.458057l0,-22.916113l19.670485,-11.254554l0,-22.916113l-19.670485,-11.458057l0,-22.916113l19.670485,-11.458057l0,-22.916113l-19.670485,-11.458057l0,-22.916113l19.670485,-11.239868l0,-22.916113l-19.670485,-11.458057l0,-22.916113l19.670485,-11.458057l0,-22.916113l-19.670485,-11.458057l0,-22.916113l19.670485,-11.239868l0,-22.916113l-19.670485,-11.458057l0,-22.916113l19.670485,-11.472742l0,-22.916113l-19.670485,-11.458057l0,-22.916113l19.670485,-11.239868l0,-22.916113l-19.670485,-11.458057l0,-22.916113l19.670485,-11.458057l0,-22.916113l-19.670485,-11.458057l0,-22.916113l19.670485,-11.239868l0,-22.916113l-19.670485,-11.458057l0,-22.916113l19.670485,-11.458057l0,-22.916113l-19.670485,-11.458057l0,-22.916113l19.670485,-11.254554l0,-22.916113l-19.670485,-11.458057l0,-22.916113l19.670485,-11.458057l19.670485,11.458057l19.670485,-11.458057l19.670485,11.458057l19.670485,-11.458057l19.670485,11.458057l19.873317,-11.458057l19.670485,11.458057l19.670485,-11.458057l19.655848,11.458057l19.670485,-11.458057l19.670485,11.458057l19.670485,-11.458057l19.670485,11.458057l19.670485,-11.458057l19.670485,11.458057l19.873317,-11.458057l19.670485,11.458057l19.670485,-11.458057l19.670485,11.458057l19.655848,-11.458057l19.670485,11.458057l19.670485,-11.458057l19.670485,11.458057l19.670485,-11.458057l19.670485,11.458057l19.655848,-11.458057l19.670485,11.458057l19.670485,-11.458057l19.670485,11.458057l19.873317,-11.458057l19.670485,11.458057l19.670485,-11.458057l19.670485,11.458057l19.670485,-11.458057l19.670485,11.458057m-39.340971,0l0,22.916113l19.670485,11.458057l19.670485,-11.458057m-39.340971,45.628724l0,22.916113l19.670485,11.458057l19.670485,-11.458057l0,-22.916113l-19.670485,-11.254554l-19.670485,11.254554l-19.670485,-11.254554l-19.670485,11.254554m98.338835,-34.170667l0,22.916113m-39.326333,-22.916113l0,22.916113m19.670485,80.002894l0,22.916113l19.655848,11.458057l19.670485,-11.458057l0,-22.916113l-19.670485,-11.458057l-19.655848,11.458057l-19.670485,-11.458057l-19.670485,11.458057l0,22.916113l19.670485,11.458057l19.670485,-11.458057m39.326333,-68.74834l-19.670485,11.458057l0,22.916113m-19.655848,-34.37417l19.655848,11.458057m-39.326333,0l0,22.916113m0,45.832227l0,22.916113l19.670485,11.239868l19.655848,-11.239868l0,-22.916113m39.340971,-68.74834l0,22.916113l19.670485,11.458057l19.873317,-11.458057l0,-22.916113m-39.543802,22.916113l-19.670485,11.458057m-19.670485,57.290284l19.670485,11.239868l19.670485,-11.239868l0,-22.916113l-19.670485,-11.458057m39.340971,-22.916113l0,22.916113l19.873317,11.458057l19.670485,-11.458057l0,-22.916113l-19.670485,-11.458057m0,45.832227l0,22.916113l19.670485,11.239868l19.670485,-11.239868l0,-22.916113l-19.670485,-11.458057m-59.214287,11.458057l19.670485,-11.458057m-157.351336,-160.211389l0,22.916113l19.670485,11.458057l19.670485,-11.458057m-118.227834,-22.916113l0,22.916113l19.670485,11.458057l19.670485,-11.458057l0,-22.916113m0,22.916113l19.873317,11.458057l19.670485,-11.458057m-39.543802,45.628724l0,22.916113l19.873317,11.458057l19.670485,-11.458057l0,-22.916113l-19.670485,-11.254554l-19.873317,11.254554l-19.670485,-11.254554l-19.670485,11.254554l0,22.916113l19.670485,11.458057l19.670485,-11.458057m-19.670485,-57.086781l0,22.916113m78.884773,-22.916113l0,22.916113m-39.340971,-22.916113l0,22.916113m-98.541666,-57.290284l0,22.916113l19.655848,11.458057l19.670485,-11.458057m-78.668349,-22.916113l0,22.916113l19.670485,11.458057l19.670485,-11.458057m-19.670485,34.37417l-19.670485,11.254554l0,22.916113l19.670485,11.458057l19.670485,-11.458057l0,-22.916113l-19.670485,-11.254554zm58.997864,11.254554l-19.670485,-11.254554l-19.655848,11.254554m-19.670485,-34.170667l0,22.916113m39.326333,-22.916113l0,22.916113m19.670485,34.170667l-19.670485,11.458057l0,22.916113l19.670485,11.458057l19.670485,-11.458057l0,-22.916113m-78.668349,0l0,22.916113l19.670485,11.458057l19.655848,-11.458057m-39.326333,68.74834l19.670485,11.239868l19.655848,-11.239868l0,-22.916113l-19.655848,-11.458057l-19.670485,11.458057l0,22.916113l-19.670485,11.239868l0,22.916113l19.670485,11.458057l19.670485,-11.458057l0,-22.916113m19.655848,-34.155981l19.670485,-11.458057l0,-22.916113m-39.326333,-45.832227l19.655848,11.458057m-19.655848,57.290284l0,-22.916113m98.541666,-34.37417l0,22.916113l19.670485,11.458057l19.670485,-11.458057l0,-22.916113l-19.670485,-11.458057m-78.884773,68.74834l19.670485,11.458057l19.670485,-11.458057l0,-22.916113l-19.670485,-11.458057m39.543802,0l-19.873317,11.458057m19.873317,57.290284l19.670485,11.239868l19.670485,-11.239868l0,-22.916113l-19.670485,-11.458057l-19.670485,11.458057l0,22.916113l-19.873317,11.239868l0,22.916113l-19.670485,11.458057l0,22.916113l19.670485,11.458057l19.873317,-11.458057l0,-22.916113l-19.873317,-11.458057m-59.011456,-34.155981l19.670485,11.239868l19.670485,-11.239868l0,-22.916113m19.670485,-11.458057l19.873317,11.458057m19.670485,-11.458057l0,-22.916113m0,68.530151l0,22.916113l19.670485,11.458057l19.670485,-11.458057l0,-22.916113l-19.670485,-11.239868m-59.214287,79.988208l0,22.916113l19.873317,11.458057l19.670485,-11.458057l0,-22.916113l-19.670485,-11.458057m19.670485,34.37417l19.670485,11.458057l19.670485,-11.458057l0,-22.916113l-19.670485,-11.458057l-19.670485,11.458057m-19.670485,-34.37417l19.670485,-11.458057m19.670485,11.458057l0,22.916113m-78.884773,-22.916113l-19.670485,-11.458057l-19.670485,11.458057l0,22.916113l19.670485,11.458057l19.670485,-11.458057m-19.670485,-34.37417l0,-22.916113m-58.997864,57.290284l-19.670485,11.458057l0,22.916113l19.670485,11.458057l19.670485,-11.458057l0,-22.916113l-19.670485,-11.458057zm19.670485,34.37417l19.655848,11.458057l19.670485,-11.458057l0,-22.916113m-58.997864,-34.37417l0,22.916113m39.326333,0l-19.655848,11.458057m0,-45.832227l19.655848,11.458057m0,91.664454l-19.655848,11.239868l0,22.916113l19.655848,11.458057l19.670485,-11.458057l0,-22.916113l-19.670485,-11.239868zm0,-22.916113l0,22.916113m-39.326333,-22.916113l0,22.916113l19.670485,11.239868m0,22.916113l-19.670485,11.458057l0,22.916113l19.670485,11.472742l19.655848,-11.472742l0,-22.916113m98.556304,-34.37417l0,22.916113l19.670485,11.458057l19.670485,-11.458057l0,-22.916113l-19.670485,-11.239868l-19.670485,11.239868zm19.670485,-34.155981l0,22.916113m-59.214287,-34.37417l-19.670485,11.458057l0,22.916113l19.670485,11.239868l19.873317,-11.239868l0,-22.916113m-59.214287,57.072095l19.670485,11.458057l19.670485,-11.458057l0,-22.916113m39.543802,22.916113l-19.670485,11.458057l0,22.916113l19.670485,11.472742l19.670485,-11.472742l0,-22.916113m-118.227834,22.916113l19.670485,11.472742l19.670485,-11.472742l0,-22.916113m19.670485,-11.458057l19.873317,11.458057m0,-45.614038l19.670485,11.239868m-78.884773,-45.614038l19.670485,11.458057m0,22.916113l-19.670485,11.239868m256.111517,-148.515213l-19.873317,11.239868l0,22.916113l19.873317,11.458057l19.670485,-11.458057l0,-22.916113m-78.885818,0l0,22.916113l19.670485,11.458057l19.670485,-11.458057m-39.340971,68.74834l19.670485,11.458057l19.670485,-11.458057l0,-22.916113l-19.670485,-11.458057l-19.670485,11.458057l0,22.916113l-19.670485,11.458057l0,22.916113m59.011456,-34.37417l19.873317,11.458057l19.670485,-11.458057l0,-22.916113l-19.670485,-11.458057l-19.873317,11.458057m19.873317,-34.37417l0,22.916113m-39.543802,-22.916113l0,22.916113m-58.997864,-57.290284l0,22.916113l19.655848,11.458057l19.670485,-11.458057m-78.668349,0l19.670485,11.458057l19.670485,-11.458057m-39.340971,68.74834l19.670485,11.458057l19.670485,-11.458057l0,-22.916113l-19.670485,-11.458057l-19.670485,11.458057m78.668349,0l-19.670485,-11.458057l-19.655848,11.458057m19.655848,-34.37417l0,22.916113m-39.326333,-22.916113l0,22.916113m19.670485,79.988208l0,22.916113l19.655848,11.458057l19.670485,-11.458057l0,-22.916113l-19.670485,-11.239868l-19.655848,11.239868l-19.670485,-11.239868l-19.670485,11.239868m19.670485,-34.155981l0,22.916113m19.670485,34.155981l-19.670485,11.458057l0,22.916113l19.670485,11.472742l19.655848,-11.472742l0,-22.916113m-58.997864,-11.458057l19.670485,11.458057m118.206924,-68.530151l0,22.916113l19.670485,11.239868l19.670485,-11.239868l0,-22.916113l-19.670485,-11.458057m-19.670485,34.37417l-19.873317,11.239868l0,22.916113l19.873317,11.458057l19.670485,-11.458057l0,-22.916113m-59.214287,-34.155981l0,22.916113l19.670485,11.239868m-19.670485,-11.239868l-19.670485,11.239868m39.340971,22.916113l-19.670485,11.458057l0,22.916113l19.670485,11.472742l19.873317,-11.472742l0,-22.916113m-59.214287,-11.458057l19.670485,11.458057m-58.997864,-79.988208l19.655848,11.458057m-58.997864,-171.655809l-19.670485,-11.458057m0,45.832227l19.670485,-11.458057m-19.670485,-57.290284l19.670485,-11.458057m98.338835,103.12251l19.670485,11.239868m-98.338835,-11.239868l-19.670485,11.239868m-78.884773,0l-19.670485,-11.239868m354.443032,-160.211389l-19.655848,-11.458057l-19.670485,11.458057l0,22.916113l19.670485,11.254554l19.655848,-11.254554l0,-22.916113l19.670485,-11.458057m0,45.628724l-19.670485,-11.254554m-19.655848,-57.290284l0,22.916113m-78.682987,0l19.670485,11.458057l19.670485,-11.458057l0,-22.916113m-39.340971,91.460951l19.670485,11.458057l19.670485,-11.458057l0,-22.916113l-19.670485,-11.254554l-19.670485,11.254554m39.340971,0l19.670485,-11.254554m-39.340971,-22.916113l0,22.916113m19.670485,-34.37417l19.670485,11.458057m0,68.544837l0,22.916113l19.670485,11.458057l19.655848,-11.458057l0,-22.916113l-19.655848,-11.458057l-19.670485,11.458057l-19.670485,-11.458057m-19.670485,80.206397l19.670485,-11.458057l0,-22.916113l-19.670485,-11.458057l-19.670485,11.458057m19.670485,-34.37417l0,22.916113m39.340971,45.832227l0,22.916113l19.670485,11.239868l19.655848,-11.239868l0,-22.916113l-19.655848,-11.458057l-19.670485,11.458057l-19.670485,-11.458057m39.340971,-22.916113l0,22.916113m-39.340971,-22.916113l19.670485,-11.458057m58.997864,11.458057l-19.670485,-11.458057m0,-22.916113l19.670485,-11.458057m-19.670485,80.206397l19.670485,-11.458057m-39.327379,-91.664454l0,22.916113m0,114.36028l0,22.916113l19.655848,11.458057l19.670485,-11.458057m-39.327379,0l-19.670485,11.458057l0,22.916113l19.670485,11.458057l19.655848,-11.458057l0,-22.916113m19.670485,34.37417l-19.670485,-11.458057m-98.338835,-34.37417l19.670485,11.458057l19.670485,-11.458057l0,-22.916113l-19.670485,-11.239868m0,114.36028l19.670485,-11.458057l0,-22.916113l-19.670485,-11.458057l-19.670485,11.458057m78.682987,0l0,22.916113l19.655848,11.458057l19.670485,-11.458057m-78.668349,-22.916113l19.670485,-11.458057m-39.340971,-22.916113l0,22.916113m19.670485,-34.37417l19.670485,11.458057m-39.340971,91.664454l19.670485,11.239868l19.670485,-11.239868l0,-22.916113l-19.670485,-11.458057m0,45.614038l0,22.916113l19.670485,11.458057l19.670485,-11.458057l0,-22.916113l-19.670485,-11.239868m-59.012501,34.155981l19.670485,11.458057l19.670485,-11.458057m-19.670485,11.458057l0,22.916113l19.670485,11.472742l19.670485,-11.472742l0,-22.916113m19.670485,-34.37417l19.655848,-11.239868l0,-22.916113m19.670485,34.155981l-19.670485,-11.239868m-19.655848,34.155981l19.655848,11.458057l19.670485,-11.458057m-58.997864,34.37417l19.670485,11.472742l19.655848,-11.472742l0,-22.916113m-39.326333,-68.530151l19.670485,-11.458057m39.327379,-91.664454l-19.670485,-11.239868m-58.997864,11.239868l19.670485,-11.239868m39.326333,251.65136l-19.655848,-11.458057l-19.670485,11.458057l0,22.916113l19.670485,11.239868l19.655848,-11.239868l0,-22.916113l19.670485,-11.458057m0,45.614038l-19.670485,-11.239868m-19.655848,-57.290284l0,22.916113m-39.340971,-22.916113l0,22.916113l19.670485,11.458057m-59.012501,-11.458057l-19.670485,11.458057l0,22.916113l19.670485,11.239868l19.670485,-11.239868l0,-22.916113l-19.670485,-11.458057l0,-22.916113l-19.670485,-11.472742m59.012501,34.388856l-19.670485,11.458057m39.340971,22.916113l-19.670485,11.239868l0,22.916113l19.670485,11.458057l19.670485,-11.458057l0,-22.916113m-98.353472,-11.239868l-19.873317,11.239868l0,22.916113l19.873317,11.458057l19.670485,-11.458057l0,-22.916113m19.670485,-11.239868l19.670485,11.239868m19.670485,57.290284l-19.670485,11.458057l0,22.916113l19.670485,11.458057l19.670485,-11.458057l0,-22.916113l-19.670485,-11.458057zm0,-22.916113l0,22.916113m-19.670485,-34.37417l-19.670485,11.458057l0,22.916113l19.670485,11.458057m-19.670485,-11.458057l-19.670485,11.458057l0,22.916113l19.670485,11.458057l19.670485,-11.458057m-19.670485,11.458057l0,22.916113l19.670485,11.239868l19.670485,-11.239868l0,-22.916113m19.670485,-34.37417l19.655848,-11.458057l0,-22.916113l-19.655848,-11.458057m39.327379,45.832227l-19.670485,-11.458057m-39.326333,68.74834l19.670485,11.239868l19.655848,-11.239868l0,-22.916113l-19.655848,-11.458057m19.655848,11.458057l19.670485,-11.458057m-118.008274,-68.74834l19.670485,11.458057m78.668349,0l19.670485,-11.458057m-39.327379,114.36028l0,22.916113l19.655848,11.458057l19.670485,-11.458057m0,45.832227l-19.670485,-11.458057l-19.655848,11.458057l0,22.916113l19.655848,11.458057l19.670485,-11.458057m-19.670485,-34.37417l0,-22.916113m-19.655848,-11.458057l-19.670485,11.458057l0,22.916113l19.670485,11.458057m-59.012501,-79.988208l-19.670485,11.239868l0,22.916113l19.670485,11.458057l19.670485,-11.458057l0,-22.916113m-19.670485,103.12251l19.670485,-11.458057l0,-22.916113l-19.670485,-11.458057l-19.670485,11.458057l0,22.916113l19.670485,11.458057l0,22.916113l19.670485,11.254554l19.670485,-11.254554m-19.670485,-34.37417l19.670485,11.458057l19.670485,-11.458057m-19.670485,-34.37417l-19.670485,11.458057m0,-45.832227l19.670485,11.458057m-39.340971,0l0,22.916113m39.340971,45.832227l0,22.916113l19.670485,11.254554l19.655848,-11.254554l0,-22.916113m-98.338835,-11.458057l-19.670485,11.458057l0,22.916113l19.670485,11.254554l19.670485,-11.254554m-19.670485,11.254554l0,22.916113l19.670485,11.458057l19.670485,-11.458057l0,-22.916113m-19.670485,34.37417l0,22.916113m78.668349,0l0,-22.916113l-19.655848,-11.458057l-19.670485,11.458057l0,22.916113m19.670485,-57.290284l0,22.916113m-19.670485,11.458057l-19.670485,-11.458057m78.668349,-22.916113l-19.670485,-11.254554m0,45.628724l19.670485,-11.458057m0,-160.211389l-19.670485,-11.239868m-137.883682,-194.565628l0,22.916113l19.873317,11.458057m-39.543802,-45.846913l-19.670485,11.472742l0,22.916113l19.670485,11.458057l19.670485,-11.458057m0,45.614038l-19.670485,-11.239868l-19.670485,11.239868l0,22.916113l19.670485,11.458057l19.670485,-11.458057m-19.670485,-34.155981l0,-22.916113m-58.997864,-34.37417l0,22.916113l19.655848,11.458057l19.670485,-11.458057m-58.997864,-34.388856l-19.670485,11.472742l0,22.916113l19.670485,11.458057l19.670485,-11.458057m-39.340971,68.530151l19.670485,11.458057l19.670485,-11.458057l0,-22.916113l-19.670485,-11.239868l-19.670485,11.239868l0,22.916113l-19.670485,11.458057l0,22.916113m59.011456,-57.290284l19.655848,-11.239868l0,-22.916113m-39.326333,0l0,22.916113m19.670485,79.988208l0,22.916113l19.655848,11.458057l19.670485,-11.458057l0,-22.916113l-19.670485,-11.458057l-19.655848,11.458057zm39.326333,-45.832227l-19.670485,11.458057l0,22.916113m-39.326333,-22.916113l0,22.916113l19.670485,11.458057m-19.670485,-11.458057l-19.670485,11.458057l0,22.916113l19.670485,11.458057l19.670485,-11.458057m-19.670485,11.458057l0,22.916113l19.670485,11.239868l19.655848,-11.239868l0,-22.916113m78.884773,-68.74834l0,22.916113l19.670485,11.458057m-19.670485,-11.458057l-19.873317,11.458057l0,22.916113l19.873317,11.458057l19.670485,-11.458057m-78.885818,-22.916113l19.670485,-11.458057l0,-22.916113m19.670485,57.290284l-19.670485,11.458057l0,22.916113l19.670485,11.239868l19.873317,-11.239868l0,-22.916113m-59.214287,-11.458057l19.670485,11.458057m19.670485,-34.37417l-19.670485,-11.458057m-58.997864,-34.37417l19.655848,11.458057m0,-45.614038l19.670485,11.239868m-137.685033,-80.002894l-19.873317,11.472742l0,22.916113l19.873317,11.458057l19.670485,-11.458057l0,-22.916113m-19.670485,34.37417l0,22.916113l19.670485,11.239868l19.670485,-11.239868l0,-22.916113l-19.670485,-11.458057m-78.884773,-22.916113l0,22.916113l19.670485,11.458057l19.670485,-11.458057m19.873317,34.37417l-19.873317,11.239868l0,22.916113l19.873317,11.458057l19.670485,-11.458057l0,-22.916113m-39.543802,0l-19.670485,-11.239868l-19.670485,11.239868l0,22.916113l19.670485,11.458057l19.670485,-11.458057m-19.670485,-34.155981l0,-22.916113m-19.670485,-11.458057l-19.670485,11.458057l0,22.916113l19.670485,11.239868m-58.997864,-80.002894l-19.670485,11.472742l0,22.916113l19.670485,11.458057l19.670485,-11.458057l0,-22.916113m0,68.530151l-19.670485,-11.239868l-19.670485,11.239868l0,22.916113l19.670485,11.458057l19.670485,-11.458057l0,-22.916113l19.655848,-11.239868m0,-22.916113l-19.655848,-11.458057m-19.670485,11.458057l0,22.916113m39.326333,68.530151l-19.655848,11.458057l0,22.916113l19.655848,11.458057l19.670485,-11.458057l0,-22.916113l-19.670485,-11.458057zm19.670485,-34.37417l-19.670485,11.458057l0,22.916113m-39.326333,-22.916113l0,22.916113l19.670485,11.458057m0,22.916113l-19.670485,11.458057l0,22.916113l19.670485,11.239868l19.655848,-11.239868l0,-22.916113m137.894137,-34.37417l-19.670485,-11.458057l-19.670485,11.458057l0,22.916113l19.670485,11.458057l19.670485,-11.458057m-98.556304,-57.290284l0,22.916113l19.670485,11.458057l19.873317,-11.458057l0,-22.916113m-39.543802,91.664454l19.670485,11.239868l19.873317,-11.239868l0,-22.916113l-19.873317,-11.458057l-19.670485,11.458057l0,22.916113l-19.670485,11.239868l0,22.916113l19.670485,11.458057l19.670485,-11.458057m19.873317,-34.155981l19.670485,11.239868l19.670485,-11.239868l0,-22.916113m-39.340971,0l19.670485,-11.458057m-39.543802,-22.916113l0,22.916113m39.543802,-22.916113l-19.670485,-11.458057m19.670485,-34.37417l19.670485,11.458057m-78.884773,22.916113l-19.670485,11.458057m0,22.916113l19.670485,11.458057m-58.997864,-80.206397l19.655848,11.458057m98.556304,125.82568l-19.670485,11.458057l0,22.916113l19.670485,11.458057l19.670485,-11.458057l0,-22.916113l-19.670485,-11.458057l0,-22.916113m-39.543802,0l0,22.916113l19.873317,11.458057m0,22.916113l-19.873317,11.458057l0,22.916113l19.873317,11.458057l19.670485,-11.458057l0,-22.916113m-39.543802,0l-19.670485,-11.458057l-19.670485,11.458057l0,22.916113l19.670485,11.458057l19.670485,-11.458057m19.873317,11.458057l0,22.916113l19.670485,11.254554l19.670485,-11.254554l0,-22.916113l-19.670485,-11.458057m-59.214287,-34.37417l0,-22.916113m-58.997864,-34.37417l0,22.916113l19.655848,11.458057l19.670485,-11.458057m-58.997864,-34.155981l-19.670485,11.239868l0,22.916113l19.670485,11.458057l19.670485,-11.458057m-19.670485,34.37417l-19.670485,11.458057l0,22.916113l19.670485,11.458057l19.670485,-11.458057l0,-22.916113l-19.670485,-11.458057zm58.997864,34.37417l-19.670485,11.458057l0,22.916113l19.670485,11.254554l19.670485,-11.254554l0,-22.916113m-39.340971,-68.74834l0,22.916113l19.670485,11.458057m-58.997864,-34.37417l0,22.916113m19.670485,11.458057l19.655848,-11.458057m0,45.832227l-19.655848,-11.458057m-19.670485,11.458057l0,22.916113l19.670485,11.254554l19.655848,-11.254554m0,68.544837l0,-22.916113l-19.655848,-11.458057l-19.670485,11.458057l0,22.916113m78.668349,0l0,-22.916113l-19.670485,-11.458057l-19.670485,11.458057m-19.655848,-11.458057l0,-22.916113m39.326333,22.916113l0,-22.916113m19.670485,34.37417l19.670485,-11.458057l0,-22.916113l-19.670485,-11.254554m39.543802,0l-19.873317,11.254554m19.873317,57.290284l0,-22.916113l-19.873317,-11.458057m98.556304,34.37417l0,-22.916113l-19.670485,-11.458057l-19.670485,11.458057l0,22.916113m-19.670485,-57.290284l0,22.916113l19.670485,11.458057m-39.340971,0l19.670485,-11.458057m157.351336,-160.211389l0,22.916113l19.873317,11.458057l19.670485,-11.458057m-59.214287,-34.155981l-19.670485,11.239868l0,22.916113l19.670485,11.458057l19.670485,-11.458057m-19.670485,80.206397l19.670485,-11.458057l0,-22.916113l-19.670485,-11.458057l-19.670485,11.458057l0,22.916113l19.670485,11.458057l0,22.916113l19.670485,11.254554l19.873317,-11.254554m19.670485,-57.290284l-19.670485,-11.458057l-19.873317,11.458057m0,22.916113l19.873317,11.458057m0,-45.832227l0,-22.916113m-39.543802,0l0,22.916113m-58.997864,-57.290284l0,22.916113l19.655848,11.458057l19.670485,-11.458057m-58.997864,-34.155981l-19.670485,11.239868l0,22.916113l19.670485,11.458057l19.670485,-11.458057m-39.340971,45.832227l0,22.916113l19.670485,11.458057l19.670485,-11.458057l0,-22.916113l-19.670485,-11.458057l-19.670485,11.458057l-19.670485,-11.458057m98.338835,11.458057l-19.670485,-11.458057l-19.655848,11.458057m0,22.916113l19.655848,11.458057l19.670485,-11.458057m-19.670485,-57.290284l0,22.916113m-39.326333,-22.916113l0,22.916113m0,45.832227l0,22.916113l19.670485,11.254554l19.655848,-11.254554l0,-22.916113m-39.326333,22.916113l-19.670485,11.254554l0,22.916113m58.997864,34.37417l0,-22.916113l-19.655848,-11.458057l-19.670485,11.458057m19.670485,-11.458057l0,-22.916113m19.655848,-11.254554l19.670485,11.254554l19.670485,-11.254554m-19.670485,11.254554l0,22.916113l19.670485,11.458057l19.670485,-11.458057l0,-22.916113m-19.670485,34.37417l0,22.916113m39.543802,0l0,-22.916113l-19.873317,-11.458057m-59.011456,11.458057l19.670485,-11.458057m-78.668349,-297.491979l-19.670485,-11.239868m0,-22.916113l19.670485,-11.458057m-19.670485,286.016089l19.670485,-11.458057m-19.670485,-57.290284l19.670485,-11.458057m0,-22.916113l-19.670485,-11.239868m98.338835,11.239868l-19.670485,-11.239868m-177.226744,11.239868l-19.670485,-11.239868m137.894137,148.536192l-19.670485,-11.254554m157.549985,45.628724l19.670485,-11.458057m0,-160.211389l-19.670485,-11.239868m39.340971,-206.041518l-19.670485,11.472742m-157.549985,0l-19.670485,-11.472742m98.338835,11.472742l-19.670485,-11.472742m216.569805,11.472742l-19.670485,-11.472742m-334.776729,11.472742l-19.670485,-11.472742m-492.128065,-400.397349l0,22.916113l19.670485,11.458057l19.670485,-11.458057l0,-22.916113m0,22.916113l19.873317,11.458057l19.670485,-11.458057l0,-22.916113m-118.227834,0l0,22.916113l19.670485,11.458057l19.670485,-11.458057m-19.670485,34.37417l-19.670485,11.254554l0,22.916113l19.670485,11.458057l19.670485,-11.458057l0,-22.916113l-19.670485,-11.254554zm19.670485,34.170667l19.670485,11.458057l19.670485,-11.458057l0,-22.916113l-19.670485,-11.254554l-19.670485,11.254554m39.340971,22.916113l19.873317,11.458057l19.670485,-11.458057l0,-22.916113l-19.670485,-11.254554l-19.873317,11.254554m-59.011456,-34.170667l0,22.916113m39.340971,-22.916113l0,22.916113m39.543802,-22.916113l0,22.916113m-118.227834,-22.916113l19.670485,-11.458057m0,45.628724l-19.670485,-11.254554m0,114.38126l19.670485,-11.458057l0,-22.916113l-19.670485,-11.458057m0,-22.916113l19.670485,-11.458057m59.011456,34.37417l-19.670485,11.458057l0,22.916113l19.670485,11.458057l19.670485,-11.458057l0,-22.916113l-19.670485,-11.458057l0,-22.916113m19.670485,57.290284l19.873317,11.458057l19.670485,-11.458057l0,-22.916113l-19.670485,-11.458057l-19.873317,11.458057m19.873317,-34.37417l0,22.916113m-78.884773,-22.916113l0,22.916113l19.670485,11.458057m0,22.916113l-19.670485,11.458057l0,22.916113l19.670485,11.239868l19.670485,-11.239868l0,-22.916113m39.543802,0l0,22.916113l19.670485,11.239868l19.670485,-11.239868l0,-22.916113l-19.670485,-11.458057m-98.556304,-34.37417l-19.670485,11.458057m0,22.916113l19.670485,11.458057m59.011456,57.072095l-19.670485,11.458057l0,22.916113l19.670485,11.458057l19.873317,-11.458057l0,-22.916113l-19.873317,-11.458057zm19.873317,-34.155981l-19.873317,11.239868l0,22.916113m-59.011456,-34.155981l-19.670485,11.239868l0,22.916113l19.670485,11.458057l19.670485,-11.458057l0,-22.916113m0,68.74834l-19.670485,-11.458057l-19.670485,11.458057l0,22.916113l19.670485,11.458057l19.670485,-11.458057l0,-22.916113l19.670485,-11.458057m19.670485,11.458057l0,22.916113l19.873317,11.458057l19.670485,-11.458057l0,-22.916113l-19.670485,-11.458057m-78.884773,-22.916113l0,22.916113m39.340971,-22.916113l-19.670485,-11.458057m-59.012501,11.458057l19.670485,-11.458057m0,45.832227l-19.670485,-11.458057m0,114.36028l19.670485,-11.458057l0,-22.916113l-19.670485,-11.239868m98.353472,11.239868l0,22.916113l19.873317,11.458057l19.670485,-11.458057l0,-22.916113l-19.670485,-11.239868l-19.873317,11.239868zm19.873317,-34.155981l0,22.916113m-19.873317,-34.37417l-19.670485,11.458057l0,22.916113l19.670485,11.239868m-59.011456,-34.155981l0,22.916113l19.670485,11.239868l19.670485,-11.239868m-39.340971,45.614038l0,22.916113l19.670485,11.472742l19.670485,-11.472742l0,-22.916113l-19.670485,-11.458057l-19.670485,11.458057zm78.884773,0l0,22.916113l19.670485,11.472742l19.670485,-11.472742l0,-22.916113l-19.670485,-11.458057m-59.214287,11.458057l19.670485,-11.458057m-39.340971,-22.916113l0,22.916113m0,-68.530151l19.670485,11.458057m-39.340971,22.916113l-19.670485,11.239868m0,22.916113l19.670485,11.458057m-39.340971,-68.530151l19.670485,-11.458057m78.682987,-91.664454l-19.670485,-11.239868m-59.011456,11.239868l-19.670485,-11.239868m413.462852,-194.586608l0,22.916113l19.670485,11.458057l19.670485,-11.458057m-78.668349,-22.916113l0,22.916113l19.655848,11.458057l19.670485,-11.458057m-19.670485,34.37417l-19.655848,11.254554l0,22.916113l19.655848,11.458057l19.670485,-11.458057l0,-22.916113l-19.670485,-11.254554l0,-22.916113m59.011456,34.170667l-19.670485,-11.254554l-19.670485,11.254554m19.670485,-11.254554l0,-22.916113m-98.338835,-34.37417l0,22.916113l19.670485,11.458057l19.670485,-11.458057m-78.884773,-22.916113l0,22.916113l19.873317,11.458057l19.670485,-11.458057m-39.543802,45.628724l0,22.916113l19.873317,11.458057l19.670485,-11.458057l0,-22.916113l-19.670485,-11.254554l-19.873317,11.254554l-19.670485,-11.254554l-19.670485,11.254554m118.227834,0l-19.670485,-11.254554l-19.670485,11.254554m-19.670485,-34.170667l0,22.916113m39.340971,-22.916113l0,22.916113m19.670485,34.170667l-19.670485,11.458057l0,22.916113l19.670485,11.458057l19.655848,-11.458057l0,-22.916113m-58.997864,-11.458057l19.670485,11.458057m0,22.916113l-19.670485,11.458057l0,22.916113l19.670485,11.458057l19.670485,-11.458057l0,-22.916113m-78.884773,-45.832227l-19.670485,11.458057l0,22.916113l19.670485,11.458057l19.873317,-11.458057l0,-22.916113m19.670485,57.290284l-19.670485,11.458057l0,22.916113l19.670485,11.239868l19.670485,-11.239868l0,-22.916113m-59.214287,-34.37417l0,22.916113l19.873317,11.458057m19.670485,-34.37417l-19.670485,-11.458057m98.338835,-34.37417l19.670485,11.458057l19.670485,-11.458057m-19.670485,34.37417l-19.670485,11.458057l0,22.916113l19.670485,11.458057l19.670485,-11.458057l0,-22.916113l-19.670485,-11.458057l0,-22.916113m-39.340971,22.916113l19.670485,11.458057m0,22.916113l-19.670485,11.458057l0,22.916113l19.670485,11.239868l19.670485,-11.239868l0,-22.916113m-39.340971,0l-19.655848,-11.458057m-118.227834,-160.211389l0,22.916113l19.670485,11.458057l19.670485,-11.458057m-78.682987,-22.916113l0,22.916113l19.670485,11.458057l19.670485,-11.458057m-39.340971,45.628724l0,22.916113l19.670485,11.458057l19.670485,-11.458057l0,-22.916113l-19.670485,-11.254554l-19.670485,11.254554l-19.670485,-11.254554l-19.670485,11.254554m98.353472,-34.170667l0,22.916113m-39.340971,-22.916113l0,22.916113m-59.011456,-57.290284l0,22.916113l19.670485,11.458057l19.670485,-11.458057m-78.668349,0l19.670485,11.458057l19.655848,-11.458057m-39.326333,68.544837l19.670485,11.458057l19.655848,-11.458057l0,-22.916113l-19.655848,-11.254554l-19.670485,11.254554m58.997864,-34.170667l0,22.916113m-39.326333,-22.916113l0,22.916113m19.655848,34.170667l19.670485,11.458057l19.670485,-11.458057m-19.670485,11.458057l0,22.916113l19.670485,11.458057l19.670485,-11.458057l0,-22.916113m-39.340971,22.916113l-19.670485,11.458057l0,22.916113l19.670485,11.458057l19.670485,-11.458057l0,-22.916113m-78.668349,0l19.670485,-11.458057l0,-22.916113m39.326333,68.74834l0,22.916113l19.670485,11.239868l19.670485,-11.239868l0,-22.916113l-19.670485,-11.458057m-39.340971,-22.916113l-19.655848,-11.458057m0,45.832227l19.655848,-11.458057m78.682987,-68.74834l19.670485,11.458057m0,22.916113l-19.670485,11.458057l0,22.916113l19.670485,11.458057l19.670485,-11.458057m-59.011456,34.37417l19.670485,11.239868l19.670485,-11.239868l0,-22.916113m-39.340971,-45.832227l19.670485,11.458057m-19.670485,34.37417l19.670485,-11.458057m0,45.614038l0,22.916113l19.670485,11.458057l19.670485,-11.458057l0,-22.916113l-19.670485,-11.239868m-59.011456,11.239868l0,22.916113l19.670485,11.458057l19.670485,-11.458057m-39.340971,68.74834l19.670485,11.458057l19.670485,-11.458057l0,-22.916113l-19.670485,-11.458057l-19.670485,11.458057l0,22.916113l-19.670485,11.458057l0,22.916113m59.011456,-34.37417l19.670485,11.458057l19.670485,-11.458057l0,-22.916113l-19.670485,-11.458057l-19.670485,11.458057m19.670485,-34.37417l0,22.916113m-39.340971,-22.916113l0,22.916113m-39.340971,-68.530151l-19.670485,11.239868l0,22.916113l19.670485,11.458057l19.670485,-11.458057m-78.668349,-22.916113l0,22.916113l19.670485,11.458057l19.655848,-11.458057m-39.326333,68.74834l19.670485,11.458057l19.655848,-11.458057l0,-22.916113l-19.655848,-11.458057l-19.670485,11.458057m78.668349,0l-19.670485,-11.458057l-19.670485,11.458057m-19.655848,-34.37417l0,22.916113m39.326333,-22.916113l0,22.916113m-19.670485,79.988208l0,22.916113l19.670485,11.458057l19.670485,-11.458057l0,-22.916113l-19.670485,-11.239868l-19.670485,11.239868l-19.655848,-11.239868l-19.670485,11.239868m19.670485,-34.155981l0,22.916113m39.326333,45.614038l0,22.916113l19.670485,11.472742l19.670485,-11.472742l0,-22.916113l-19.670485,-11.458057m-58.997864,11.458057l19.655848,-11.458057m98.353472,-57.072095l0,22.916113l19.670485,11.239868l19.873317,-11.239868l0,-22.916113l-19.873317,-11.458057m-19.670485,34.37417l-19.670485,11.239868l0,22.916113l19.670485,11.458057l19.670485,-11.458057l0,-22.916113m-39.340971,0l-19.670485,-11.239868l-19.670485,11.239868m19.670485,-34.155981l0,22.916113m39.340971,45.614038l0,22.916113l19.670485,11.472742l19.873317,-11.472742l0,-22.916113l-19.873317,-11.458057m-59.011456,11.458057l19.670485,-11.458057m-78.682987,-68.530151l19.670485,11.458057m216.569805,-103.12251l0,22.916113l19.670485,11.458057l19.670485,-11.458057m-39.340971,0l-19.670485,11.458057l0,22.916113l19.670485,11.458057l19.670485,-11.458057l0,-22.916113m-39.340971,22.916113l-19.655848,11.458057l0,22.916113l19.655848,11.458057l19.670485,-11.458057l0,-22.916113m39.340971,0l-19.670485,-11.458057m-98.338835,-57.290284l0,22.916113l19.670485,11.458057l19.670485,-11.458057l0,-22.916113l-19.670485,-11.239868m-59.214287,34.155981l19.873317,11.458057l19.670485,-11.458057m-19.670485,80.206397l19.670485,-11.458057l0,-22.916113l-19.670485,-11.458057l-19.873317,11.458057m78.884773,0l-19.670485,-11.458057l-19.670485,11.458057m-19.670485,-34.37417l0,22.916113m39.340971,-22.916113l0,22.916113m19.670485,34.37417l-19.670485,11.458057l0,22.916113l19.670485,11.239868l19.655848,-11.239868l0,-22.916113m-39.326333,22.916113l-19.670485,11.239868l0,22.916113l19.670485,11.458057l19.670485,-11.458057l0,-22.916113m-19.670485,34.37417l0,22.916113l19.670485,11.472742l19.655848,-11.472742l0,-22.916113l-19.655848,-11.458057m-39.340971,-22.916113l-19.670485,-11.239868m0,45.614038l19.670485,-11.458057m98.338835,-34.155981l-19.670485,11.239868l0,22.916113l19.670485,11.458057l19.670485,-11.458057l0,-22.916113l-19.670485,-11.239868l0,-22.916113l-19.670485,-11.458057m0,45.614038l-19.670485,-11.239868m0,45.614038l19.670485,-11.458057m-19.670485,34.37417l19.670485,11.472742l19.670485,-11.472742l0,-22.916113m0,-68.530151l19.670485,-11.458057m-118.008274,0l19.670485,11.458057m39.326333,-68.74834l-19.655848,-11.458057m-196.913957,-22.916113l-19.655848,-11.239868m295.235018,11.239868l-19.670485,-11.239868m-118.008274,0l-19.873317,11.239868m98.541666,-11.239868l-19.655848,11.239868m-255.902412,34.37417l19.670485,-11.458057m275.55826,183.121208l0,22.916113l19.670485,11.458057l19.670485,-11.458057m-39.340971,0l-19.670485,11.458057l0,22.916113l19.670485,11.239868l19.670485,-11.239868l0,-22.916113m-39.340971,22.916113l-19.655848,11.239868l0,22.916113l19.655848,11.458057l19.670485,-11.458057l0,-22.916113m39.340971,0l-19.670485,-11.239868m-58.997864,-57.290284l0,22.916113l19.655848,11.458057m-19.655848,-11.458057l-19.670485,11.458057l0,22.916113l19.670485,11.239868m-19.670485,-34.155981l-19.670485,-11.458057l-19.670485,11.458057l0,22.916113l19.670485,11.239868l19.670485,-11.239868m-19.670485,-34.37417l0,-22.916113l-19.670485,-11.472742m-19.873317,11.472742l0,22.916113l19.873317,11.458057m0,22.916113l-19.873317,11.239868l0,22.916113l19.873317,11.458057l19.670485,-11.458057l0,-22.916113m0,68.74834l0,22.916113l19.670485,11.458057l19.670485,-11.458057l0,-22.916113l-19.670485,-11.458057l-19.670485,11.458057l-19.670485,-11.458057l-19.873317,11.458057l0,22.916113l19.873317,11.458057l19.670485,-11.458057m39.340971,-68.74834l-19.670485,11.458057l0,22.916113m-39.340971,-22.916113l0,22.916113m-19.873317,34.37417l-19.670485,11.458057l0,22.916113l19.670485,11.239868l19.873317,-11.239868l0,-22.916113m39.340971,0l0,22.916113l19.670485,11.239868l19.655848,-11.239868l0,-22.916113l-19.655848,-11.458057m58.997864,-34.37417l-19.670485,11.458057l0,22.916113l19.670485,11.458057l19.670485,-11.458057l0,-22.916113l-19.670485,-11.458057l0,-22.916113l-19.670485,-11.458057m-19.670485,11.458057l0,22.916113l19.670485,11.458057m-19.670485,34.37417l19.670485,-11.458057m-19.670485,34.37417l19.670485,11.239868l19.670485,-11.239868l0,-22.916113m-98.338835,-80.206397l19.670485,11.458057m39.326333,22.916113l-19.655848,11.458057m58.997864,-34.37417l19.670485,-11.458057m-177.226744,-102.919007l-19.670485,11.472742l0,22.916113l19.670485,11.458057l19.670485,-11.458057m-78.682987,-22.916113l0,22.916113l19.670485,11.458057l19.670485,-11.458057m-39.340971,0l-19.670485,11.458057l0,22.916113l19.670485,11.239868l19.670485,-11.239868l0,-22.916113m-39.340971,22.916113l-19.670485,11.239868l0,22.916113l19.670485,11.458057l19.670485,-11.458057l0,-22.916113m78.682987,0l-19.670485,-11.239868l-19.670485,11.239868l0,22.916113l19.670485,11.458057l19.670485,-11.458057m-19.670485,-57.072095l0,22.916113m-39.340971,0l19.670485,11.239868m-59.011456,-80.002894l-19.670485,11.472742l0,22.916113l19.670485,11.458057m-58.997864,-11.458057l-19.670485,11.458057l0,22.916113l19.670485,11.239868l19.670485,-11.239868l0,-22.916113l-19.670485,-11.458057l0,-22.916113m0,68.530151l0,22.916113l19.670485,11.458057l19.655848,-11.458057m0,-22.916113l-19.655848,-11.239868m0,-22.916113l19.655848,-11.458057m0,114.36028l0,22.916113l19.670485,11.458057l19.670485,-11.458057l0,-22.916113l-19.670485,-11.458057l-19.670485,11.458057zm19.670485,-34.37417l0,22.916113m-39.326333,-22.916113l0,22.916113l19.655848,11.458057m-19.655848,-11.458057l-19.670485,11.458057l0,22.916113l19.670485,11.458057l19.655848,-11.458057m-39.326333,0l-19.670485,11.458057l0,22.916113l19.670485,11.239868l19.670485,-11.239868l0,-22.916113m39.326333,0l0,22.916113l19.670485,11.239868l19.670485,-11.239868l0,-22.916113l-19.670485,-11.458057m59.011456,-57.290284l0,22.916113l19.670485,11.458057m-19.670485,-11.458057l-19.670485,11.458057l0,22.916113l19.670485,11.458057m-19.670485,-34.37417l-19.670485,-11.458057l-19.670485,11.458057m39.340971,-45.832227l-19.670485,11.458057l0,22.916113m0,45.832227l19.670485,-11.458057m-39.340971,-68.74834l19.670485,11.458057m-19.670485,102.904322l0,22.916113l19.670485,11.458057l19.670485,-11.458057l0,-22.916113l-19.670485,-11.239868m19.670485,34.155981l19.670485,11.458057l19.670485,-11.458057l0,-22.916113m-78.682987,91.664454l19.670485,11.458057l19.670485,-11.458057l0,-22.916113l-19.670485,-11.458057l-19.670485,11.458057l0,22.916113zm39.340971,0l19.670485,11.458057l19.670485,-11.458057l0,-22.916113l-19.670485,-11.458057l-19.670485,11.458057m19.670485,-34.37417l0,22.916113m-39.340971,-22.916113l0,22.916113m-98.338835,-57.290284l0,22.916113l19.670485,11.458057l19.655848,-11.458057l0,-22.916113l-19.655848,-11.239868m19.655848,34.155981l19.670485,11.458057l19.670485,-11.458057m-78.668349,0l-19.670485,11.458057l0,22.916113l19.670485,11.458057l19.670485,-11.458057l0,-22.916113m-39.340971,22.916113l-19.873317,11.458057l0,22.916113l19.873317,11.458057l19.670485,-11.458057l0,-22.916113m-19.670485,34.37417l0,22.916113l19.670485,11.254554l19.670485,-11.254554l0,-22.916113l-19.670485,-11.458057m78.668349,-22.916113l-19.670485,-11.458057l-19.670485,11.458057l0,22.916113l19.670485,11.458057l19.670485,-11.458057m-19.670485,-57.290284l0,22.916113m-39.326333,45.832227l19.655848,-11.458057m0,-22.916113l-19.655848,-11.458057m19.655848,80.002894l0,22.916113l19.670485,11.458057l19.670485,-11.458057l0,-22.916113l-19.670485,-11.254554l-19.670485,11.254554l-19.655848,-11.254554m-19.670485,11.254554l0,22.916113l19.670485,11.458057l19.655848,-11.458057m-19.655848,11.458057l0,22.916113m39.326333,-22.916113l0,22.916113m39.340971,-91.460951l0,22.916113l19.670485,11.254554l19.670485,-11.254554l0,-22.916113m-59.011456,34.170667l19.670485,-11.254554m-19.670485,34.170667l19.670485,11.458057l19.670485,-11.458057l0,-22.916113m-19.670485,34.37417l0,22.916113m39.340971,0l0,-22.916113l-19.670485,-11.458057m-59.011456,-57.086781l0,22.916113m216.569805,-126.035477l0,22.916113l19.670485,11.458057l19.670485,-11.458057m-78.668349,-22.916113l0,22.916113l19.655848,11.458057l19.670485,-11.458057m-19.670485,34.37417l-19.655848,11.458057l0,22.916113l19.655848,11.458057l19.670485,-11.458057l0,-22.916113l-19.670485,-11.458057l0,-22.916113m59.011456,34.37417l-19.670485,-11.458057l-19.670485,11.458057m0,22.916113l19.670485,11.458057l19.670485,-11.458057m-19.670485,-34.37417l0,-22.916113m-78.668349,-45.614038l-19.670485,11.239868l0,22.916113l19.670485,11.458057l19.670485,-11.458057m-78.884773,0l19.873317,11.458057l19.670485,-11.458057m-39.543802,68.74834l19.873317,11.458057l19.670485,-11.458057l0,-22.916113l-19.670485,-11.458057l-19.873317,11.458057m78.884773,22.916113l-19.670485,11.458057l0,22.916113l19.670485,11.254554l19.655848,-11.254554l0,-22.916113m-19.655848,-34.37417l-19.670485,-11.458057l-19.670485,11.458057m19.670485,34.37417l-19.670485,-11.458057m-19.670485,-34.37417l0,-22.916113m39.340971,0l0,22.916113m-39.340971,45.832227l0,22.916113l19.670485,11.254554l19.670485,-11.254554m-78.884773,0l19.670485,11.254554l19.873317,-11.254554m-19.873317,11.254554l0,22.916113l19.873317,11.458057l19.670485,-11.458057l0,-22.916113m-19.670485,34.37417l0,22.916113m78.668349,0l0,-22.916113l-19.655848,-11.458057l-19.670485,11.458057l0,22.916113m0,-22.916113l-19.670485,-11.458057m39.340971,-22.916113l0,22.916113m58.997864,-34.170667l-19.670485,11.254554l0,22.916113l19.670485,11.458057l19.670485,-11.458057l0,-22.916113l-19.670485,-11.254554l0,-22.916113m-39.340971,22.916113l19.670485,11.254554m0,22.916113l-19.670485,11.458057m39.340971,22.916113l0,-22.916113m-157.549985,0l19.670485,-11.458057m-98.353472,-171.446012l-19.670485,11.239868m98.353472,-11.239868l-19.670485,11.239868m78.884773,0l-19.670485,-11.239868m137.685033,11.239868l-19.670485,-11.239868m-374.119791,-194.565628l0,22.916113l19.670485,11.458057l19.670485,-11.458057l0,-22.916113l-19.670485,-11.472742m19.670485,34.388856l19.873317,11.458057m-78.884773,-45.846913l-19.670485,11.472742l0,22.916113l19.670485,11.458057l19.670485,-11.458057m0,45.614038l-19.670485,-11.239868l-19.670485,11.239868l0,22.916113l19.670485,11.458057l19.670485,-11.458057l0,-22.916113zm0,22.916113l19.670485,11.458057l19.670485,-11.458057l0,-22.916113l-19.670485,-11.239868l-19.670485,11.239868m59.214287,-11.239868l-19.873317,11.239868m-59.011456,-34.155981l0,22.916113m39.340971,0l0,-22.916113m-78.682987,0l19.670485,-11.458057m0,45.614038l-19.670485,-11.239868m0,114.36028l19.670485,-11.458057l0,-22.916113l-19.670485,-11.458057m78.682987,-22.916113l0,22.916113l19.670485,11.458057l19.873317,-11.458057l0,-22.916113l-19.873317,-11.458057m-59.011456,11.458057l0,22.916113l19.670485,11.458057l19.670485,-11.458057m-39.340971,68.74834l19.670485,11.239868l19.670485,-11.239868l0,-22.916113l-19.670485,-11.458057l-19.670485,11.458057l0,22.916113l-19.670485,11.239868m59.011456,-34.155981l19.670485,-11.458057l0,-22.916113m0,22.916113l19.873317,11.458057m-59.214287,-34.37417l0,22.916113m-59.012501,-57.290284l19.670485,-11.458057m19.670485,34.37417l-19.670485,11.458057m0,22.916113l19.670485,11.458057m19.670485,34.155981l0,22.916113l19.670485,11.458057l19.670485,-11.458057l0,-22.916113l-19.670485,-11.239868m19.670485,34.155981l19.873317,11.458057m-59.214287,-11.458057l-19.670485,11.458057l0,22.916113l19.670485,11.458057l19.670485,-11.458057l0,-22.916113m-39.340971,22.916113l-19.670485,11.458057l0,22.916113l19.670485,11.458057l19.670485,-11.458057l0,-22.916113m0,22.916113l19.670485,11.458057l19.670485,-11.458057m0,-22.916113l-19.670485,-11.458057m-78.682987,-22.916113l19.670485,-11.458057l0,-22.916113l-19.670485,-11.239868m0,114.36028l19.670485,-11.458057m0,-22.916113l-19.670485,-11.458057m0,114.38126l19.670485,-11.458057l0,-22.916113l-19.670485,-11.254554m118.227834,0l-19.873317,11.254554l0,22.916113l19.873317,11.458057l19.670485,-11.458057m-39.543802,-22.916113l-19.670485,-11.254554l-19.670485,11.254554l0,22.916113l19.670485,11.458057l19.670485,-11.458057m-59.011456,-57.086781l0,22.916113l19.670485,11.254554m0,22.916113l-19.670485,11.458057l0,22.916113m78.884773,0l0,-22.916113m-39.543802,22.916113l0,-22.916113m0,-45.628724l0,-22.916113m-59.011456,-80.206397l19.670485,11.458057m0,91.664454l-19.670485,11.254554m0,22.916113l19.670485,11.458057m78.884773,-182.911411l-19.873317,11.239868m39.543802,-68.530151l-19.670485,-11.458057m0,-22.916113l19.670485,-11.458057m39.326333,-91.446265l-19.655848,-11.472742m-137.894137,11.472742l-19.670485,-11.472742m118.227834,0l-19.873317,11.472742m256.111517,-11.472742l-19.670485,11.472742m-98.556304,-11.472742l19.670485,11.472742m196.893047,0l-19.670485,-11.472742m19.670485,-240.18596l19.670485,11.458057m0,-45.832227l-19.670485,11.458057m0,434.772568l19.670485,11.458057m0,-45.832227l-19.670485,11.458057m19.670485,194.565628l-19.670485,11.254554m0,22.916113l19.670485,11.458057m-19.670485,-423.328148l19.670485,11.458057m0,-45.614038l-19.670485,11.239868" id="radarr-honeycomb"/>
   <g stroke="null" fill-rule="evenodd" transform="matrix(0.7837560260820043,0,0,0.7863501828570368,-21.372537619138626,-15.310311421631049) " id="radarr-group-details">
    <g stroke="null" fill="#f0f0f0" id="radarr-group-shapes-l-r">
     <path stroke="null" d="m813.957406,813.176683c76.922,-76.922 124.5,-183.19 124.5,-300.57s-47.578,-223.65 -124.5,-300.57l-300.57,300.57l300.57,300.57z" id="radarr-shape-right"/>
     <path stroke="null" d="m212.817406,212.036683c-76.922,76.922 -124.5,183.19 -124.5,300.57s47.578,223.64 124.5,300.57l300.57,-300.57l-300.57,-300.57z" id="radarr-shape-left"/>
    </g>
    <g stroke="null" fill="#f0f0f0" id="radarr-group-shapes-t-b">
     <path stroke="null" d="m817.280007,922.816683c-85.035,62.871 -190.22,100.05 -304.09,100.05c-113.7,0 -218.74,-37.059 -303.7,-99.758l196.29,-201.4c32.191,16.406 68.637,25.656 107.24,25.656c38.875,0 75.562,-9.3828 107.92,-26.004l196.34,201.456z" id="radarr-shape-bottom"/>
     <path stroke="null" d="m817.280007,102.406683c-85.035,-62.875 -190.22,-100.05 -304.09,-100.05c-113.7,0 -218.74,37.059 -303.7,99.758l196.29,201.4c32.191,-16.406 68.637,-25.656 107.24,-25.656c38.875,0 75.562,9.3828 107.92,26.004l196.34,-201.456z" id="radarr-shape-top"/>
    </g>
    <path stroke="null" fill="#ffc230" d="m838.440007,787.156683l-34.102,36.566l-214.52,-200.04l34.102,-36.57l214.52,200.044zm-82.996,-77.395l-11.031,11.832l-131.52,-122.65l11.031,-11.832l131.52,122.65zm-23.066,24.738l-11.031,11.832l-131.53,-122.65l11.035,-11.832l131.526,122.65z" id="radarr-stick-2"/>
    <path stroke="null" fill="#ffc230" d="m189.050007,237.286683l34.102,-36.57l214.52,200.04l-34.102,36.566l-214.52,-200.036zm82.996,77.391l11.031,-11.828l131.52,122.65l-11.031,11.828l-131.52,-122.65zm23.066,-24.734l11.031,-11.832l131.53,122.65l-11.035,11.832l-131.526,-122.65z" id="radarr-stick-1"/>
    <path stroke="null" fill="#ffc230" d="m648.510007,512.616683c0,74.625 -60.492,135.12 -135.12,135.12c-74.621,0 -135.12,-60.492 -135.12,-135.12c0,-74.621 60.496,-135.12 135.12,-135.12c74.625,0 135.12,60.496 135.12,135.12z" id="radarr-yellow-circle"/>
   </g>
   <path stroke="null" stroke-width="1.0852" fill="#ffc230" d="m380.999968,-15.308512a401.481149,402.810013 0 0 0 -401.481149,402.810013a401.481149,402.810013 0 0 0 401.481149,402.810013a401.481149,402.810013 0 0 0 401.481149,-402.810013a401.481149,402.810013 0 0 0 -401.481149,-402.810013zm0,15.734766a385.798292,387.075247 0 0 1 385.798292,387.075247a385.798292,387.075247 0 0 1 -385.798292,387.075247a385.798292,387.075247 0 0 1 -385.798292,-387.075247a385.798292,387.075247 0 0 1 385.798292,-387.075247z" id="radarr-outer-ring"/>
  </g>
 </g>
</svg>